<?xml version="1.0" encoding="utf-8"?>
<!-- Generator: Adobe Illustrator 19.2.0, SVG Export Plug-In . SVG Version: 6.00 Build 0)  -->
<svg version="1.1" id="Layer_1" xmlns="http://www.w3.org/2000/svg" xmlns:xlink="http://www.w3.org/1999/xlink" x="0px" y="0px"
	 viewBox="0 0 440 160" style="enable-background:new 0 0 440 160;" xml:space="preserve">
<style type="text/css">
	.st0{fill:#FBC510;}
	.st1{fill:#FFCD53;}
	.st2{fill:#FCC60E;}
	.st3{fill:#151717;}
	.st4{fill:#FFFFFF;}
	.st5{fill:#EEB91D;}
</style>
<g>
	<path class="st0" d="M78.7,52.5c-0.4,1.5-1.1,2.8-2,3.9c-0.9,1.2-2.1,2.1-3.6,2.7c-1.4,0.6-3.1,0.9-5,0.9s-3.6-0.3-5-0.9
		c-1.4-0.7-2.7-1.6-3.6-2.7c-1-1.1-1.6-2.4-2-3.9C57.2,51.3,57,50,57,48.6H28.5l5.3,73.6c0,2.2,0.1,2.9,0.5,4.6
		c0.1,0.6,0.2,1.2,0.4,2c0.6,2.9,1.4,4.2,3.3,5.6c2.4,1.6,14.3,2.8,19.8,2.8c5.7,0,17.8-1.2,19.9-3c2.6-2.3,2.7-2.6,3.2-5.6v-0.1
		c0.2-0.9,0.3-1.5,0.4-2.1c0.4-1.5,0.5-2.3,0.5-4.3V122l5.3-73.4h-7.9C79.2,50,79,51.3,78.7,52.5z"/>
	<polygon class="st0" points="87.1,48.5 87.1,48.6 87.1,48.6 	"/>
</g>
<path class="st1" d="M47,48.6l4.7,88.3h0.1l1.3-88.3C53.1,48.6,47,48.6,47,48.6z"/>
<path class="st2" d="M104.7,129.8c7.5-6.1,8.4-7.2,8.4-10.9V50.1h15.5v71.2c0,6.5-5.5,12.3-14.7,19.4L104.7,129.8z"/>
<path class="st2" d="M146.5,71.8V105c0,2.3,1,3.6,3.6,3.6c2.7,0,7.6-1.9,10.9-3.6V71.8h14.9v50.3h-11.1l-1.6-3.8
	c-6.2,3-14.3,4.9-20.1,4.9c-8.6,0-11.6-6.4-11.6-16.1V71.8H146.5z"/>
<path class="st2" d="M195.7,123.1c-5.5,0-13.3-1.3-18.3-3l2.4-11.1c4.1,1.2,9.6,2.3,15.2,2.3c4.4,0,5.2-1.2,5.2-4.2
	c0-3.2-0.1-3.6-8.2-5.6c-12.2-3-13.3-6.3-13.3-15.7c0-10.6,4.1-15.1,19.2-15.1c3.8,0,10.9,0.5,15.3,1.7L211.8,84
	c-4.4-0.8-9.9-1.4-13.8-1.4c-4.3,0-5.4,1.1-5.4,3.4c0,3.1,0.4,3.5,6.4,4.9c14.4,3.2,15.4,6.3,15.4,16.3
	C214.4,117.4,210.1,123.1,195.7,123.1"/>
<path class="st2" d="M236.6,123.1c-9.6,0-15.2-3.6-15.2-12.9V83.8h-6.8v-12h6.8V59.7l14.9-2.1v14.2h11.5l-0.8,12h-10.6v24.4
	c0,2.1,1.2,2.8,3.1,2.8c1.7,0,4-0.2,6.2-0.9l1.8,11.3C244.1,122.4,240.1,123.1,236.6,123.1"/>
<path class="st2" d="M279.1,122.1h-29.4V53.3H277c14.4,0,19.6,5.8,19.6,15.1v7c0,5-2.2,8.5-7.6,10.9c5.7,1.3,10.1,6.3,10.1,12.7v6.7
	C299.1,115.4,292.9,122.1,279.1,122.1 M281.1,70.6c0-3-1.9-4.9-6.2-4.9h-9.6v15.7h9.6c4.1,0,6.2-2.1,6.2-4.9V70.6z M283.6,99.4
	c0-3.8-2.4-5.8-6.5-5.8h-11.8v16h9.6c4.9,0,8.7-1,8.7-6L283.6,99.4L283.6,99.4z"/>
<path class="st2" d="M316,102.1v1.4c0,5.8,2.3,7.3,9.1,7.3c4.6,0,10.8-0.8,15.3-2.2l2.2,11.2c-4.5,1.7-11.9,3.2-18.9,3.2
	c-16.3,0-22.5-8.1-22.5-20.5V90.9c0-10.9,4.9-20.2,21.6-20.2s20.4,9.9,20.4,20.9v10.5H316z M329,88.8c0-3.5-1-6.4-6.2-6.4
	s-6.8,2.9-6.8,6.4V91h13V88.8z"/>
<path class="st2" d="M361.1,102.1v1.4c0,5.8,2.3,7.3,9.1,7.3c4.7,0,10.9-0.8,15.3-2.2l2.2,11.2c-4.5,1.7-11.9,3.2-18.9,3.2
	c-16.3,0-22.5-8.1-22.5-20.5V90.9c0-10.9,4.9-20.2,21.6-20.2s20.4,9.9,20.4,20.9v10.5H361.1z M374.1,88.8c0-3.5-1-6.4-6.2-6.4
	s-6.8,2.9-6.8,6.4V91h13V88.8z"/>
<path class="st2" d="M406.7,91.4v30.7h-14.9V71.8h12.4l1,4.9c3.1-2.1,9.5-5.1,13.5-5.9l1.2,14.1C415.6,86.5,409.9,89.1,406.7,91.4"
	/>
<path class="st3" d="M90,19c-2.5-0.6-22.2-2.1-29.6-2.7c-26-1.9-31.3,0.7-34.8,2.4l-0.4,0.2L24.8,19c-0.1,0.1-0.3,0.2-0.4,0.3
	c-1.6,1-4.4,2.6-4.4,5.7v2.7l0.2,2.7l0,0l7.1,92.2c0,4,0.5,5.7,1.3,8.7l0.3,1c1,3.7,1.9,4.8,3.8,7.1l0.6,0.7
	c3.3,4,19.7,4.3,24.6,4.3l0,0c7.9,0,21.5-0.6,24.6-4.3l0.6-0.7c1.9-2.3,2.8-3.4,3.8-7.1l0.3-1c0.8-3.1,1.3-4.7,1.3-8.7l7.1-92.2l0,0
	l0.2-2.5l0.1-2.8V25C95.7,21.7,92.8,19.6,90,19 M87.1,48.5L81.8,122v0.1c0,2-0.1,2.8-0.5,4.3c-0.1,0.6-0.2,1.2-0.4,2.1v0.1
	c-0.5,3-0.6,3.3-3.2,5.6c-2.1,1.8-14.2,3-19.9,3c-5.5,0-17.4-1.2-19.8-2.8c-1.9-1.4-2.7-2.7-3.3-5.6c-0.2-0.8-0.3-1.4-0.4-2
	c-0.4-1.7-0.5-2.4-0.5-4.6l-5.3-73.6H57c0,1.4,0.2,2.7,0.5,3.9c0.4,1.5,1,2.8,2,3.9c0.9,1.1,2.2,2,3.6,2.7c1.4,0.6,3.1,0.9,5,0.9
	s3.6-0.3,5-0.9c1.5-0.6,2.7-1.5,3.6-2.7c0.9-1.1,1.6-2.4,2-3.9c0.3-1.2,0.5-2.5,0.5-3.9h7.9V48.5z M72.9,31.7v16.4
	c0,0.7-0.1,1.4-0.2,2.2c-0.1,0.6-0.3,1.1-0.7,1.6c-0.3,0.4-0.7,0.8-1.3,1.1c-0.3,0.2-1.1,0.5-2.6,0.5c-1.4,0-2.2-0.2-2.6-0.5
	c-0.6-0.3-1-0.7-1.3-1.1c-0.3-0.5-0.6-1.1-0.7-1.7c-0.2-0.8-0.2-1.6-0.2-2.3V33.8l0,0v-2.2c0-3.8-3-6.6-7.3-6.6c0,0,0,0-26.5,0h-2.3
	c0.1-0.1,0.2-0.2,0.3-0.2c0.1-0.1,0.2-0.2,0.4-0.2l0.3-0.1c2.8-1.3,7.4-3.5,31.6-1.8c13.4,1,23.6,1.9,27.2,2.3h-6.9l0,0h-0.5h-0.1
	c-4,0.3-6.8,2.9-6.8,6.6L72.9,31.7L72.9,31.7z M56.1,31.2c0.5,0,0.9,0.1,1,0.2v0.1v0.1l0,0v10.6h-29l-0.8-11h2.3
	C29.6,31.2,56.1,31.2,56.1,31.2z M87.5,42.3h-8.3V31.7l0,0v-0.1v-0.1c0.1-0.1,0.5-0.2,1-0.2h8.1L87.5,42.3z"/>
<path class="st4" d="M41,61c0,0.7,0.7,1.3,1.4,1.3c0.8,0,1.3-0.7,1.3-1.4s-0.7-1.3-1.4-1.3S41,60.2,41,61"/>
<path class="st4" d="M51.4,52.3c0,0.7,0.7,1.3,1.4,1.3c0.8,0,1.3-0.7,1.3-1.4s-0.7-1.3-1.4-1.3C52,50.9,51.4,51.5,51.4,52.3"/>
<path class="st4" d="M47.3,58.7c0.1,1.1,1,2,2.1,1.9s2-1,1.9-2.1c0-1.1-1-2-2.1-1.9C48.2,56.6,47.3,57.6,47.3,58.7"/>
<path class="st4" d="M51.8,65.7c0,0.9,0.8,1.6,1.7,1.6s1.6-0.8,1.6-1.7c0-0.9-0.8-1.6-1.7-1.6C52.4,64,51.7,64.8,51.8,65.7"/>
<path class="st4" d="M48.8,78.8c0,0.8,0.7,1.3,1.4,1.3c0.8,0,1.3-0.7,1.3-1.4c0-0.8-0.7-1.3-1.4-1.3C49.3,77.4,48.8,78,48.8,78.8"/>
<path class="st4" d="M46.7,72c0,0.4,0.3,0.6,0.7,0.6s0.6-0.3,0.6-0.7c0-0.4-0.3-0.6-0.7-0.6C47,71.4,46.7,71.7,46.7,72"/>
<path class="st4" d="M45.1,90c0,0.4,0.3,0.6,0.7,0.6s0.6-0.3,0.6-0.7c0-0.4-0.3-0.6-0.7-0.6C45.4,89.3,45.1,89.6,45.1,90"/>
<path class="st4" d="M46.3,83.2c0,0.4,0.3,0.6,0.7,0.6s0.6-0.3,0.6-0.7c0-0.4-0.3-0.6-0.7-0.6C46.6,82.5,46.3,82.8,46.3,83.2"/>
<path class="st4" d="M45.7,53.2c0,0.4,0.3,0.6,0.7,0.6s0.6-0.3,0.6-0.7s-0.3-0.6-0.7-0.6C45.9,52.5,45.7,52.8,45.7,53.2"/>
<path class="st4" d="M40.9,50.2c0,0.4,0.3,0.6,0.7,0.6s0.6-0.3,0.6-0.7s-0.3-0.6-0.7-0.6C41.2,49.6,40.9,49.9,40.9,50.2"/>
<path class="st4" d="M39.3,55.5c0.1,1.3,1.1,2.2,2.4,2.2c1.3-0.1,2.2-1.1,2.2-2.4c-0.1-1.3-1.1-2.2-2.4-2.2
	C40.2,53.2,39.2,54.3,39.3,55.5"/>
<g>
	<polygon class="st5" points="87.1,48.5 87.1,48.6 87.1,48.6 	"/>
	<path class="st5" d="M38,134.4c2.4,1.6,14.3,2.8,19.8,2.8c5.7,0,17.8-1.2,19.9-3c2.6-2.3,2.7-2.6,3.2-5.6v-0.1
		c0.2-0.9,0.3-1.5,0.4-2.1c0.4-1.5,0.5-2.3,0.5-4.3V122l5.3-73.4h-6c-4.4,92.5-0.8,76.5-23.2,76.5c-14.6,0-21.4,4-22,7.2
		C36.4,133.1,37.1,133.7,38,134.4z"/>
</g>
<path class="st4" d="M72.9,31.7v16.4c0,0.7-0.1,1.4-0.2,2.2c-0.1,0.6-0.3,1.1-0.7,1.6c-0.3,0.4-0.7,0.8-1.3,1.1
	c-0.3,0.2-1.1,0.5-2.6,0.5c-1.4,0-2.2-0.2-2.6-0.5c-0.6-0.3-1-0.7-1.3-1.1c-0.3-0.5-0.6-1.1-0.7-1.7c-0.2-0.8-0.2-1.6-0.2-2.3V33.8
	l0,0v-2.2c0-3.8-3-6.6-7.3-6.6c0,0,0,0-26.5,0h-2.3c0.1-0.1,0.2-0.2,0.3-0.2c0.1-0.1,0.2-0.2,0.4-0.2l0.3-0.1
	c2.8-1.3,7.4-3.5,31.6-1.8c13.4,1,23.6,1.9,27.2,2.3h-6.9l0,0h-0.5h-0.1c-4,0.3-6.8,2.9-6.8,6.6L72.9,31.7L72.9,31.7z"/>
<path class="st4" d="M56.1,31.2c0.5,0,0.9,0.1,1,0.2v0.1v0.1l0,0v10.6h-29l-0.8-11h2.3C29.6,31.2,56.1,31.2,56.1,31.2z"/>
<path class="st4" d="M87.5,42.3h-8.3V31.7l0,0v-0.1v-0.1c0.1-0.1,0.5-0.2,1-0.2h8.1L87.5,42.3z"/>
</svg>
